<?xml version="1.0" encoding="UTF-8" standalone="no"?>
<!DOCTYPE svg PUBLIC "-//W3C//DTD SVG 1.1//EN"
"http://www.w3.org/Graphics/SVG/1.1/DTD/svg11.dtd">
<svg viewBox="0 0 475 650" version="1.1" xmlns="http://www.w3.org/2000/svg" xmlns:xlink="http://www.w3.org/1999/xlink">
<defs>
<clipPath id="c0"><path d="M-667.5,1098.9V0H1862.4V1098.9Z"/></clipPath>
<clipPath id="c1"><path d="M19.9,680.6c-2.3,0,-4.5,-.4,-6.6,-1.3c-2.1,-.9,-4,-2.1,-5.6,-3.7C6.1,674,4.9,672.1,4,670c-.9,-2.1,-1.3,-4.3,-1.3,-6.6V145.5c0,-2.3,.4,-4.5,1.3,-6.6c.9,-2.1,2.1,-3.9,3.7,-5.5c1.6,-1.6,3.5,-2.9,5.6,-3.8c2.1,-.8,4.3,-1.3,6.6,-1.3H431.2c2.3,0,4.5,.5,6.6,1.3c2.1,.9,4,2.2,5.6,3.8c1.6,1.6,2.8,3.4,3.7,5.5c.9,2.1,1.3,4.3,1.3,6.6V663.4c0,2.3,-.4,4.5,-1.3,6.6c-.9,2.1,-2.1,4,-3.7,5.6c-1.6,1.6,-3.5,2.8,-5.6,3.7c-2.1,.9,-4.3,1.3,-6.6,1.3Z"/></clipPath>
<style type="text/css"><![CDATA[
.g0{
fill: #FAFAFA;
}
.g1{
fill: #FFFFFF;
}
.g2{
fill: #D1D6DE;
fill-opacity: 0.8;
}
.g3{
fill: #EDF7F4;
}
.g4{
fill: none;
stroke: #ECEFF1;
stroke-width: 1.145;
stroke-linecap: butt;
stroke-linejoin: miter;
}
]]></style>
</defs>
<path clip-path="url(#c0)" d="M-667.5,0H1862.4V1098.9H-667.5V0Z" class="g0"/>
<path d="M2.7,111.1v-71C2.7,39,2.8,37.9,3,36.8c.2,-1.2,.5,-2.2,1,-3.3c.4,-1,.9,-2,1.6,-2.9c.6,-1,1.3,-1.9,2.1,-2.6c.8,-.8,1.7,-1.6,2.6,-2.2c1,-.6,1.9,-1.1,3,-1.6c1,-.4,2.1,-.7,3.2,-1c1.1,-.2,2.2,-.3,3.4,-.3H431.2c1.1,0,2.3,.1,3.4,.3c1.1,.3,2.1,.6,3.2,1c1,.5,2,1,3,1.6c.9,.6,1.8,1.4,2.6,2.2c.8,.7,1.5,1.6,2.1,2.6c.6,.9,1.2,1.9,1.6,2.9c.4,1.1,.8,2.1,1,3.3c.2,1.1,.3,2.2,.3,3.3v71c0,1.2,-.1,2.3,-.3,3.4c-.2,1.1,-.6,2.2,-1,3.2c-.4,1.1,-1,2.1,-1.6,3c-.6,.9,-1.3,1.8,-2.1,2.6c-.8,.8,-1.7,1.5,-2.6,2.1c-1,.7,-2,1.2,-3,1.6c-1.1,.5,-2.1,.8,-3.2,1c-1.1,.2,-2.3,.3,-3.4,.3H19.9c-1.2,0,-2.3,-.1,-3.4,-.3c-1.1,-.2,-2.2,-.5,-3.2,-1c-1.1,-.4,-2,-.9,-3,-1.6c-.9,-.6,-1.8,-1.3,-2.6,-2.1c-.8,-.8,-1.5,-1.7,-2.1,-2.6c-.7,-.9,-1.2,-1.9,-1.6,-3c-.5,-1,-.8,-2.1,-1,-3.2c-.2,-1.1,-.3,-2.2,-.3,-3.4Z" class="g3"/>
<g clip-path="url(#c1)">
<path d="M2.7,128.3H448.4V680.6H2.7V128.3Z" class="g1"/>
<path fill-rule="evenodd" d="M449.6,127.2H1.5V682H449.6V127.2ZM3.8,145.5V663.4c0,1.1,.1,2.1,.3,3.2c.2,1,.5,2,.9,3c.4,.9,.9,1.9,1.5,2.7c.6,.9,1.3,1.7,2,2.5c.8,.7,1.6,1.4,2.4,2c.9,.6,1.8,1.1,2.8,1.5c1,.4,2,.7,3,.9c1.1,.2,2.1,.3,3.2,.3H431.2c1.1,0,2.1,-.1,3.1,-.3c1.1,-.2,2.1,-.5,3.1,-.9c.9,-.4,1.9,-.9,2.7,-1.5c.9,-.6,1.7,-1.3,2.5,-2c.7,-.8,1.4,-1.6,2,-2.5c.5,-.8,1,-1.8,1.4,-2.7c.4,-1,.7,-2,.9,-3c.3,-1.1,.4,-2.1,.4,-3.2V145.5c0,-1,-.1,-2.1,-.4,-3.1c-.2,-1,-.5,-2,-.9,-3c-.4,-1,-.9,-1.9,-1.4,-2.8c-.6,-.9,-1.3,-1.7,-2,-2.4c-.8,-.8,-1.6,-1.4,-2.5,-2c-.8,-.6,-1.8,-1.1,-2.7,-1.5c-1,-.4,-2,-.7,-3.1,-.9c-1,-.2,-2,-.3,-3.1,-.3H19.9c-1.1,0,-2.1,.1,-3.2,.3c-1,.2,-2,.5,-3,.9c-1,.4,-1.9,.9,-2.8,1.5c-.8,.6,-1.6,1.2,-2.4,2c-.7,.7,-1.4,1.5,-2,2.4c-.6,.9,-1.1,1.8,-1.5,2.8c-.4,1,-.7,2,-.9,3c-.2,1,-.3,2.1,-.3,3.1Z" class="g2"/>
</g>
<path d="M50.2,374.1H400.9v1.2H50.2v-1.2Zm0,229.2H400.9v1.1H50.2v-1.1Z" class="g4"/>
</svg>