<?xml version="1.0" encoding="UTF-8" standalone="no"?>
<!DOCTYPE svg PUBLIC "-//W3C//DTD SVG 1.1//EN"
"http://www.w3.org/Graphics/SVG/1.1/DTD/svg11.dtd">
<svg viewBox="0 0 2530 1100" version="1.1" xmlns="http://www.w3.org/2000/svg" xmlns:xlink="http://www.w3.org/1999/xlink">
<defs>
<clipPath id="c0"><path d="M0,1098.9V0H2530V1098.9Z"/></clipPath>
<clipPath id="c1"><path d="M687.5,680.6c-2.3,0,-4.5,-.4,-6.6,-1.3c-2.1,-.9,-3.9,-2.1,-5.6,-3.7c-1.6,-1.6,-2.8,-3.5,-3.7,-5.6c-.9,-2.1,-1.3,-4.3,-1.3,-6.6V145.5c0,-2.3,.4,-4.5,1.3,-6.6c.9,-2.1,2.1,-3.9,3.7,-5.5c1.7,-1.6,3.5,-2.9,5.6,-3.8c2.1,-.8,4.3,-1.3,6.6,-1.3h411.4c2.2,0,4.4,.5,6.5,1.3c2.1,.9,4,2.2,5.6,3.8c1.6,1.6,2.9,3.4,3.7,5.5c.9,2.1,1.3,4.3,1.3,6.6V663.4c0,2.3,-.4,4.5,-1.3,6.6c-.8,2.1,-2.1,4,-3.7,5.6c-1.6,1.6,-3.5,2.8,-5.6,3.7c-2.1,.9,-4.3,1.3,-6.5,1.3Z"/></clipPath>
<style type="text/css"><![CDATA[
.g0{
fill: #FAFAFA;
}
.g1{
fill: #FFFFFF;
}
.g2{
fill: #D1D6DE;
fill-opacity: 0.8;
}
.g3{
fill: #EDF7F4;
}
.g4{
fill: none;
stroke: #ECEFF1;
stroke-width: 1.145;
stroke-linecap: butt;
stroke-linejoin: miter;
}
]]></style>
</defs>
<path clip-path="url(#c0)" d="M0,0H2530V1098.9H0V0Z" class="g0"/>
<path d="M670.3,111.1v-71c0,-1.1,.1,-2.2,.3,-3.3c.3,-1.2,.6,-2.2,1,-3.3c.5,-1,1,-2,1.6,-2.9c.6,-1,1.3,-1.9,2.1,-2.6c.8,-.8,1.7,-1.6,2.7,-2.2c.9,-.6,1.9,-1.1,2.9,-1.6c1.1,-.4,2.1,-.7,3.2,-1c1.2,-.2,2.3,-.3,3.4,-.3h411.4c1.1,0,2.2,.1,3.3,.3c1.1,.3,2.2,.6,3.2,1c1.1,.5,2.1,1,3,1.6c.9,.6,1.8,1.4,2.6,2.2c.8,.7,1.5,1.6,2.1,2.6c.7,.9,1.2,1.9,1.6,2.9c.5,1.1,.8,2.1,1,3.3c.2,1.1,.3,2.2,.3,3.3v71c0,1.2,-.1,2.3,-.3,3.4c-.2,1.1,-.5,2.2,-1,3.2c-.4,1.1,-.9,2.1,-1.6,3c-.6,.9,-1.3,1.8,-2.1,2.6c-.8,.8,-1.7,1.5,-2.6,2.1c-.9,.7,-1.9,1.2,-3,1.6c-1,.5,-2.1,.8,-3.2,1c-1.1,.2,-2.2,.3,-3.3,.3H687.5c-1.1,0,-2.2,-.1,-3.4,-.3c-1.1,-.2,-2.1,-.5,-3.2,-1c-1,-.4,-2,-.9,-2.9,-1.6c-1,-.6,-1.9,-1.3,-2.7,-2.1c-.8,-.8,-1.5,-1.7,-2.1,-2.6c-.6,-.9,-1.1,-1.9,-1.6,-3c-.4,-1,-.7,-2.1,-1,-3.2c-.2,-1.1,-.3,-2.2,-.3,-3.4Z" class="g3"/>
<g clip-path="url(#c1)">
<path d="M670.3,128.3H1116V680.6H670.3V128.3Z" class="g1"/>
<path fill-rule="evenodd" d="M1117.3,127.2H669.1V682h448.2V127.2ZM671.5,145.5V663.4c0,1.1,.1,2.1,.3,3.2c.2,1,.5,2,.9,3c.4,.9,.9,1.9,1.5,2.7c.5,.9,1.2,1.7,2,2.5c.7,.7,1.5,1.4,2.4,2c.9,.6,1.8,1.1,2.8,1.5c.9,.4,1.9,.7,3,.9c1,.2,2,.3,3.1,.3h411.4c1,0,2.1,-.1,3.1,-.3c1,-.2,2,-.5,3,-.9c1,-.4,1.9,-.9,2.8,-1.5c.8,-.6,1.7,-1.3,2.4,-2c.7,-.8,1.4,-1.6,2,-2.5c.6,-.8,1.1,-1.8,1.5,-2.7c.4,-1,.7,-2,.9,-3c.2,-1.1,.3,-2.1,.3,-3.2V145.5c0,-1,-.1,-2.1,-.3,-3.1c-.2,-1,-.5,-2,-.9,-3c-.4,-1,-.9,-1.9,-1.5,-2.8c-.6,-.9,-1.3,-1.7,-2,-2.4c-.7,-.8,-1.6,-1.4,-2.4,-2c-.9,-.6,-1.8,-1.1,-2.8,-1.5c-1,-.4,-2,-.7,-3,-.9c-1,-.2,-2.1,-.3,-3.1,-.3H687.5c-1.1,0,-2.1,.1,-3.1,.3c-1.1,.2,-2.1,.5,-3,.9c-1,.4,-1.9,.9,-2.8,1.5c-.9,.6,-1.7,1.2,-2.4,2c-.8,.7,-1.5,1.5,-2,2.4c-.6,.9,-1.1,1.8,-1.5,2.8c-.4,1,-.7,2,-.9,3c-.2,1,-.3,2.1,-.3,3.1Z" class="g2"/>
</g>
<path d="M717.9,374.1h350.6v1.2H717.9v-1.2Zm0,229.2h350.6v1.1H717.9v-1.1Z" class="g4"/>
</svg>